<mxfile host="app.diagrams.net" modified="2023-06-19T16:58:53.221Z" agent="Mozilla/5.0 (Windows NT 10.0; Win64; x64) AppleWebKit/537.36 (KHTML, like Gecko) Chrome/114.0.0.0 Safari/537.36 Edg/114.0.1823.43" etag="6L0q6956gOwCUhHRB2Kt" version="21.3.8" type="onedrive">
  <diagram name="Page-1" id="0qtUXiJgfwFVRcM63qEO">
    <mxGraphModel dx="1489" dy="821" grid="1" gridSize="10" guides="1" tooltips="1" connect="1" arrows="1" fold="1" page="1" pageScale="1" pageWidth="827" pageHeight="1169" math="0" shadow="0">
      <root>
        <mxCell id="0" />
        <mxCell id="1" parent="0" />
        <mxCell id="atTpddfHa10q4FmNtVy9-1" value="&lt;b style=&quot;font-size: 14px;&quot;&gt;Visual &lt;br&gt;Oddball&lt;br style=&quot;font-size: 14px;&quot;&gt;&amp;nbsp;+ &lt;br style=&quot;font-size: 14px;&quot;&gt;Stimulation&lt;br style=&quot;font-size: 14px;&quot;&gt;Type A&lt;br style=&quot;font-size: 14px;&quot;&gt;&lt;br style=&quot;font-size: 14px;&quot;&gt;&lt;font color=&quot;#b1afaf&quot; style=&quot;font-size: 14px;&quot;&gt;Trial Block&lt;br style=&quot;font-size: 14px;&quot;&gt;1+2&lt;/font&gt;&lt;br style=&quot;font-size: 14px;&quot;&gt;&lt;/b&gt;" style="rounded=0;whiteSpace=wrap;html=1;fillColor=#fff2cc;strokeColor=#d6b656;fontSize=14;" parent="1" vertex="1">
          <mxGeometry x="390" y="290" width="100" height="160" as="geometry" />
        </mxCell>
        <mxCell id="atTpddfHa10q4FmNtVy9-7" value="&lt;b style=&quot;font-size: 14px;&quot;&gt;Visual &lt;br&gt;Oddball&lt;br style=&quot;font-size: 14px;&quot;&gt;&amp;nbsp;+&lt;br style=&quot;font-size: 14px;&quot;&gt;&lt;/b&gt;&lt;b style=&quot;border-color: var(--border-color); font-size: 14px;&quot;&gt;Stimulation&lt;br style=&quot;border-color: var(--border-color); font-size: 14px;&quot;&gt;&lt;/b&gt;&lt;b style=&quot;font-size: 14px;&quot;&gt;Type C&lt;br style=&quot;font-size: 14px;&quot;&gt;&lt;br style=&quot;font-size: 14px;&quot;&gt;&lt;/b&gt;&lt;b style=&quot;border-color: var(--border-color); font-size: 14px;&quot;&gt;&lt;font style=&quot;border-color: var(--border-color); font-size: 14px;&quot; color=&quot;#b1afaf&quot;&gt;Trial Block&lt;br style=&quot;font-size: 14px;&quot;&gt;1+2&lt;/font&gt;&lt;/b&gt;&lt;b style=&quot;font-size: 14px;&quot;&gt;&lt;br style=&quot;font-size: 14px;&quot;&gt;&lt;/b&gt;" style="rounded=0;whiteSpace=wrap;html=1;fillColor=#fff2cc;strokeColor=#d6b656;fontSize=14;" parent="1" vertex="1">
          <mxGeometry x="590" y="290" width="100" height="160" as="geometry" />
        </mxCell>
        <mxCell id="atTpddfHa10q4FmNtVy9-8" value="&lt;b style=&quot;font-size: 14px;&quot;&gt;Visual &lt;br&gt;Oddball &lt;br style=&quot;font-size: 14px;&quot;&gt;+ &lt;br style=&quot;font-size: 14px;&quot;&gt;&lt;/b&gt;&lt;b style=&quot;border-color: var(--border-color); font-size: 14px;&quot;&gt;Stimulation&lt;br style=&quot;border-color: var(--border-color); font-size: 14px;&quot;&gt;&lt;/b&gt;&lt;b style=&quot;font-size: 14px;&quot;&gt;Type B&lt;br style=&quot;font-size: 14px;&quot;&gt;&lt;br style=&quot;font-size: 14px;&quot;&gt;&lt;/b&gt;&lt;b style=&quot;border-color: var(--border-color); font-size: 14px;&quot;&gt;&lt;font style=&quot;border-color: var(--border-color); font-size: 14px;&quot; color=&quot;#b1afaf&quot;&gt;Trial Block&lt;br style=&quot;font-size: 14px;&quot;&gt;1+2&lt;/font&gt;&lt;/b&gt;&lt;b style=&quot;font-size: 14px;&quot;&gt;&lt;br style=&quot;font-size: 14px;&quot;&gt;&lt;/b&gt;" style="rounded=0;whiteSpace=wrap;html=1;fillColor=#fff2cc;strokeColor=#d6b656;fontSize=14;" parent="1" vertex="1">
          <mxGeometry x="490" y="290" width="100" height="160" as="geometry" />
        </mxCell>
        <mxCell id="atTpddfHa10q4FmNtVy9-10" value="&lt;b style=&quot;font-size: 14px;&quot;&gt;NASA TLX&lt;br style=&quot;font-size: 14px;&quot;&gt;survey for &lt;br&gt;Stimulation&lt;br style=&quot;font-size: 14px;&quot;&gt;Type A, B, C&lt;/b&gt;" style="rounded=0;whiteSpace=wrap;html=1;fillColor=#f5f5f5;fontColor=#333333;strokeColor=#666666;fontSize=14;" parent="1" vertex="1">
          <mxGeometry x="690" y="290" width="100" height="160" as="geometry" />
        </mxCell>
        <mxCell id="atTpddfHa10q4FmNtVy9-12" value="Experiment Progression for each participant" style="text;html=1;strokeColor=none;fillColor=none;align=center;verticalAlign=middle;whiteSpace=wrap;rounded=0;fontStyle=1;fontSize=19;" parent="1" vertex="1">
          <mxGeometry x="270" y="230" width="430" height="30" as="geometry" />
        </mxCell>
        <mxCell id="atTpddfHa10q4FmNtVy9-13" value="" style="endArrow=classic;html=1;rounded=0;strokeWidth=2;fontSize=14;fillColor=#f5f5f5;strokeColor=#858585;fontColor=#8F8F8F;" parent="1" edge="1">
          <mxGeometry width="50" height="50" relative="1" as="geometry">
            <mxPoint x="180" y="470" as="sourcePoint" />
            <mxPoint x="790" y="470" as="targetPoint" />
          </mxGeometry>
        </mxCell>
        <mxCell id="3H4T9Kq9YfqlfcXj8xrn-1" value="&lt;b style=&quot;font-size: 14px;&quot;&gt;Information Sheet&lt;br style=&quot;font-size: 14px;&quot;&gt;+&lt;br style=&quot;font-size: 14px;&quot;&gt;Consent Form&lt;br style=&quot;font-size: 14px;&quot;&gt;+&lt;br style=&quot;font-size: 14px;&quot;&gt;Entry Questionnaire&lt;br style=&quot;font-size: 14px;&quot;&gt;&lt;/b&gt;" style="rounded=0;whiteSpace=wrap;html=1;fillColor=#f5f5f5;fontColor=#333333;strokeColor=#666666;fontSize=14;" parent="1" vertex="1">
          <mxGeometry x="180" y="290" width="110" height="160" as="geometry" />
        </mxCell>
        <mxCell id="3H4T9Kq9YfqlfcXj8xrn-3" value="&lt;b style=&quot;font-size: 14px;&quot;&gt;EEG Setup&amp;nbsp;&lt;br style=&quot;font-size: 14px;&quot;&gt;+&lt;br style=&quot;font-size: 14px;&quot;&gt;&amp;nbsp;Data Quality Checks&lt;/b&gt;" style="rounded=0;whiteSpace=wrap;html=1;fillColor=#def4c3;fontColor=#333333;strokeColor=#666666;fontSize=14;" parent="1" vertex="1">
          <mxGeometry x="290" y="290" width="100" height="160" as="geometry" />
        </mxCell>
      </root>
    </mxGraphModel>
  </diagram>
</mxfile>
